<?xml version="1.0" encoding="UTF-8" standalone="no"?>
<svg
   xmlns:dc="http://purl.org/dc/elements/1.1/"
   xmlns:cc="http://creativecommons.org/ns#"
   xmlns:rdf="http://www.w3.org/1999/02/22-rdf-syntax-ns#"
   xmlns:svg="http://www.w3.org/2000/svg"
   xmlns="http://www.w3.org/2000/svg"
   xmlns:sodipodi="http://sodipodi.sourceforge.net/DTD/sodipodi-0.dtd"
   xmlns:inkscape="http://www.inkscape.org/namespaces/inkscape"
   height="512px"
   id="Layer_1"
   style="enable-background:new 0 0 512 512;"
   version="1.1"
   viewBox="0 0 512 512"
   width="512px"
   xml:space="preserve"
   sodipodi:docname="bed.svg"
   inkscape:version="0.92.3 (2405546, 2018-03-11)"><metadata
     id="metadata5188"><rdf:RDF><cc:Work
         rdf:about=""><dc:format>image/svg+xml</dc:format><dc:type
           rdf:resource="http://purl.org/dc/dcmitype/StillImage" /></cc:Work></rdf:RDF></metadata><defs
     id="defs5186" /><sodipodi:namedview
     pagecolor="#ffffff"
     bordercolor="#666666"
     borderopacity="1"
     objecttolerance="10"
     gridtolerance="10"
     guidetolerance="10"
     inkscape:pageopacity="0"
     inkscape:pageshadow="2"
     inkscape:window-width="737"
     inkscape:window-height="480"
     id="namedview5184"
     showgrid="false"
     inkscape:zoom="0.4609375"
     inkscape:cx="256"
     inkscape:cy="256"
     inkscape:window-x="261"
     inkscape:window-y="229"
     inkscape:window-maximized="0"
     inkscape:current-layer="Layer_1" /><style
     type="text/css"
     id="style5169">
<![CDATA[
	.st0{fill:#319997;}
	.st1{fill-rule:evenodd;clip-rule:evenodd;fill:#319997;}
]]>
</style><g
     id="g5181"
     style="fill:#39b1cd;fill-opacity:1"><path
       class="st0"
       d="M95.468,416.532c41.084,41.077,97.845,66.489,160.532,66.489c62.693,0,119.454-25.412,160.532-66.489   c41.083-41.078,66.494-97.839,66.494-160.532s-25.411-119.454-66.494-160.532C375.454,54.388,318.693,28.976,256,28.976   c-62.688,0-119.448,25.412-160.532,66.492C54.39,136.546,28.979,193.307,28.979,256S54.39,375.454,95.468,416.532 M256,0   c141.388,0,256,114.615,256,256c0,141.382-114.612,256-256,256C114.618,512,0,397.382,0,256C0,114.615,114.618,0,256,0z"
       id="path5171"
       style="fill:#39b1cd;fill-opacity:1" /><path
       class="st1"
       d="M484.559,313.661H200.167v-40.245H491.29C490.245,287.215,487.964,300.667,484.559,313.661"
       id="path5173"
       style="fill:#39b1cd;fill-opacity:1" /><path
       class="st1"
       d="M202.616,263.353v-82.24c0-39.865,43.683-39.865,43.683-1.549v41.989h106.237   c-0.179-21.537-0.185-43.345,0.498-43.345h125.24c8.846,24.266,13.676,50.465,13.676,77.792c0,2.46-0.045,4.915-0.123,7.353   h-63.079h-75.714H202.616z"
       id="path5175"
       style="fill:#39b1cd;fill-opacity:1" /><path
       class="st1"
       d="M292.694,213.233c21.285,0,38.701-17.416,38.701-38.699c0-21.481-17.416-38.316-38.701-38.316   s-38.702,16.835-38.702,38.316C253.993,195.817,271.409,213.233,292.694,213.233"
       id="path5177"
       style="fill:#39b1cd;fill-opacity:1" /><path
       class="st1"
       d="M166.436,157.132L166.436,157.132c11.797,0,21.448,9.65,21.448,21.448v197.198h-42.896V178.58   C144.988,166.783,154.639,157.132,166.436,157.132"
       id="path5179"
       style="fill:#39b1cd;fill-opacity:1" /></g></svg>