<?xml version="1.0" encoding="UTF-8" standalone="no"?>
<svg
   xmlns:dc="http://purl.org/dc/elements/1.1/"
   xmlns:cc="http://creativecommons.org/ns#"
   xmlns:rdf="http://www.w3.org/1999/02/22-rdf-syntax-ns#"
   xmlns:svg="http://www.w3.org/2000/svg"
   xmlns="http://www.w3.org/2000/svg"
   xmlns:sodipodi="http://sodipodi.sourceforge.net/DTD/sodipodi-0.dtd"
   xmlns:inkscape="http://www.inkscape.org/namespaces/inkscape"
   height="512px"
   id="Layer_1"
   style="enable-background:new 0 0 512 512;"
   version="1.1"
   viewBox="0 0 512 512"
   width="512px"
   xml:space="preserve"
   sodipodi:docname="footsteps.svg"
   inkscape:version="0.92.3 (2405546, 2018-03-11)"><metadata
     id="metadata4580"><rdf:RDF><cc:Work
         rdf:about=""><dc:format>image/svg+xml</dc:format><dc:type
           rdf:resource="http://purl.org/dc/dcmitype/StillImage" /><dc:title></dc:title></cc:Work></rdf:RDF></metadata><defs
     id="defs4578" /><sodipodi:namedview
     pagecolor="#ffffff"
     bordercolor="#666666"
     borderopacity="1"
     objecttolerance="10"
     gridtolerance="10"
     guidetolerance="10"
     inkscape:pageopacity="0"
     inkscape:pageshadow="2"
     inkscape:window-width="900"
     inkscape:window-height="849"
     id="namedview4576"
     showgrid="false"
     inkscape:zoom="0.4609375"
     inkscape:cx="256"
     inkscape:cy="257.35344"
     inkscape:window-x="922"
     inkscape:window-y="83"
     inkscape:window-maximized="0"
     inkscape:current-layer="Layer_1" /><style
     type="text/css"
     id="style4561">
<![CDATA[
	.st0{fill:#319997;}
	.st1{fill-rule:evenodd;clip-rule:evenodd;fill:#319997;}
]]>
</style><path
     inkscape:connector-curvature="0"
     style="fill:#39b1cd;fill-opacity:1"
     id="path4571"
     d="m 95.467,416.537 c 41.083,41.078 97.84,66.49 160.539,66.49 62.688,0 119.449,-25.412 160.533,-66.49 41.079,-41.084 66.49,-97.84 66.49,-160.539 0,-62.688 -25.411,-119.45 -66.49,-160.534 -41.084,-41.078 -97.845,-66.49 -160.533,-66.49 -62.699,0 -119.456,25.412 -160.539,66.49 -41.079,41.084 -66.49,97.846 -66.49,160.534 0,62.699 25.411,119.455 66.49,160.539 M 256.006,0 C 397.39,0 512.003,114.613 512.003,255.998 512.003,397.387 397.39,512 256.006,512 114.616,512 -0.003,397.387 -0.003,255.998 -0.003,114.613 114.616,0 256.006,0 Z"
     class="st0" /><g
     transform="matrix(1.408799,0,0,1.6937611,-109.05759,-178.60867)"
     id="g5794"
     style="fill:#39b1cd;fill-opacity:1;stroke:none;stroke-opacity:1;stroke-width:1.00017936;stroke-miterlimit:4;stroke-dasharray:none;stroke-linejoin:bevel"><g
       id="g5780"
       style="fill:#39b1cd;fill-opacity:1;stroke:none;stroke-opacity:1;stroke-width:1.00017936;stroke-miterlimit:4;stroke-dasharray:none;stroke-linejoin:bevel"><path
         style="fill:#39b1cd;fill-opacity:1;stroke:none;stroke-width:1.00017936;stroke-linecap:round;stroke-linejoin:bevel;stroke-miterlimit:4;stroke-opacity:1;stroke-dasharray:none"
         inkscape:connector-curvature="0"
         d="m 241.2,264.2 c 0.3,-23.9 -41.5,-27.5 -54.5,-0.7 -7,14.4 7.2,31.5 13.1,49 10.8,31.8 19.9,50.9 39.7,42.8 17.9,-7.3 5.7,-31.3 0.2,-46.6 -4.3,-11.9 1.3,-30.4 1.5,-44.5 z"
         stroke-miterlimit="10"
         id="path5768" /><ellipse
         cx="233.5"
         cy="225.2"
         rx="12.3"
         ry="9.1000004"
         transform="matrix(0.0041161,-1,1,0.0041161,7.3762,457.7454)"
         id="ellipse5770"
         style="fill:#39b1cd;fill-opacity:1;stroke:none;stroke-opacity:1;stroke-width:1.00017089;stroke-miterlimit:4;stroke-dasharray:none;stroke-linejoin:bevel" /><ellipse
         cx="213.7"
         cy="226.39999"
         rx="6.8000002"
         ry="9.1000004"
         transform="matrix(0.997,-0.07752388,0.07752388,0.997,-16.9116,17.2449)"
         id="ellipse5772"
         style="fill:#39b1cd;fill-opacity:1;stroke:none;stroke-opacity:1;stroke-width:1.00016989;stroke-miterlimit:4;stroke-dasharray:none;stroke-linejoin:bevel" /><ellipse
         cx="198.2"
         cy="231.3"
         rx="5.6999998"
         ry="7.6999998"
         transform="matrix(0.9458,-0.3247,0.3247,0.9458,-64.3607,76.8798)"
         id="ellipse5774"
         style="fill:#39b1cd;fill-opacity:1;stroke:none;stroke-opacity:1;stroke-width:1.0001955;stroke-miterlimit:4;stroke-dasharray:none;stroke-linejoin:bevel" /><ellipse
         cx="186.39999"
         cy="240"
         rx="5.0999999"
         ry="6.9000001"
         transform="matrix(0.8306,-0.5568,0.5568,0.8306,-102.063,144.451)"
         id="ellipse5776"
         style="fill:#39b1cd;fill-opacity:1;stroke:none;stroke-opacity:1;stroke-width:1.00021807;stroke-miterlimit:4;stroke-dasharray:none;stroke-linejoin:bevel" /><ellipse
         cx="177.10001"
         cy="250.7"
         rx="4.3000002"
         ry="5.6999998"
         transform="matrix(0.6576,-0.7534,0.7534,0.6576,-128.2301,219.2391)"
         id="ellipse5778"
         style="fill:#39b1cd;fill-opacity:1;stroke:none;stroke-opacity:1;stroke-width:1.0001547;stroke-miterlimit:4;stroke-dasharray:none;stroke-linejoin:bevel" /></g><path
       style="fill:#39b1cd;fill-opacity:1;stroke:none;stroke-width:1.00017936;stroke-linecap:round;stroke-linejoin:bevel;stroke-miterlimit:4;stroke-opacity:1;stroke-dasharray:none"
       inkscape:connector-curvature="0"
       d="m 271.2,206.3 c -0.8,-23.9 40.9,-28.4 54.5,-1.9 7.3,14.2 -6.5,31.7 -12.1,49.3 -10.1,32 -18.8,51.4 -38.7,43.7 -18,-6.9 -6.4,-31.2 -1.3,-46.6 4,-12 -1.9,-30.4 -2.4,-44.5 z"
       stroke-miterlimit="10"
       id="path5782" /><ellipse
       cx="278"
       cy="167.10001"
       rx="9.1000004"
       ry="12.3"
       transform="matrix(0.9997,-0.02604771,0.02604771,0.9997,-4.2587,7.2975)"
       id="ellipse5784"
       style="fill:#39b1cd;fill-opacity:1;stroke:none;stroke-opacity:1;stroke-width:1.00014007;stroke-miterlimit:4;stroke-dasharray:none;stroke-linejoin:bevel" /><ellipse
       cx="297.89999"
       cy="168"
       rx="9.1000004"
       ry="6.8000002"
       transform="matrix(0.05563845,-0.9985,0.9985,0.05563845,113.5906,455.9984)"
       id="ellipse5786"
       style="fill:#39b1cd;fill-opacity:1;stroke:none;stroke-opacity:1;stroke-width:1.00013041;stroke-miterlimit:4;stroke-dasharray:none;stroke-linejoin:bevel" /><ellipse
       cx="313.39999"
       cy="172.5"
       rx="7.6999998"
       ry="5.6999998"
       transform="matrix(0.3039,-0.9527,0.9527,0.3039,53.8891,418.6624)"
       id="ellipse5788"
       style="fill:#39b1cd;fill-opacity:1;stroke:none;stroke-opacity:1;stroke-width:1.00018311;stroke-miterlimit:4;stroke-dasharray:none;stroke-linejoin:bevel" /><ellipse
       cx="325.39999"
       cy="180.89999"
       rx="6.9000001"
       ry="5.0999999"
       transform="matrix(0.5385,-0.8426,0.8426,0.5385,-2.2612,357.6706)"
       id="ellipse5790"
       style="fill:#39b1cd;fill-opacity:1;stroke:none;stroke-opacity:1;stroke-width:1.00020086;stroke-miterlimit:4;stroke-dasharray:none;stroke-linejoin:bevel" /><ellipse
       cx="335"
       cy="191.39999"
       rx="5.6999998"
       ry="4.3000002"
       transform="matrix(0.7388,-0.674,0.674,0.7388,-41.4864,275.7441)"
       id="ellipse5792"
       style="fill:#39b1cd;fill-opacity:1;stroke:none;stroke-opacity:1;stroke-width:1.00012864;stroke-miterlimit:4;stroke-dasharray:none;stroke-linejoin:bevel" /></g></svg>