<?xml version="1.0" encoding="UTF-8" standalone="no"?>
<svg
   xmlns:dc="http://purl.org/dc/elements/1.1/"
   xmlns:cc="http://creativecommons.org/ns#"
   xmlns:rdf="http://www.w3.org/1999/02/22-rdf-syntax-ns#"
   xmlns:svg="http://www.w3.org/2000/svg"
   xmlns="http://www.w3.org/2000/svg"
   xmlns:sodipodi="http://sodipodi.sourceforge.net/DTD/sodipodi-0.dtd"
   xmlns:inkscape="http://www.inkscape.org/namespaces/inkscape"
   height="512px"
   id="Layer_1"
   style="enable-background:new 0 0 512 512;"
   version="1.1"
   viewBox="0 0 512 512"
   width="512px"
   xml:space="preserve"
   sodipodi:docname="www.svg"
   inkscape:version="0.92.3 (2405546, 2018-03-11)"><metadata
     id="metadata4616"><rdf:RDF><cc:Work
         rdf:about=""><dc:format>image/svg+xml</dc:format><dc:type
           rdf:resource="http://purl.org/dc/dcmitype/StillImage" /></cc:Work></rdf:RDF></metadata><defs
     id="defs4614" /><sodipodi:namedview
     pagecolor="#ffffff"
     bordercolor="#666666"
     borderopacity="1"
     objecttolerance="10"
     gridtolerance="10"
     guidetolerance="10"
     inkscape:pageopacity="0"
     inkscape:pageshadow="2"
     inkscape:window-width="1636"
     inkscape:window-height="953"
     id="namedview4612"
     showgrid="false"
     inkscape:zoom="0.4609375"
     inkscape:cx="256"
     inkscape:cy="256"
     inkscape:window-x="0"
     inkscape:window-y="0"
     inkscape:window-maximized="0"
     inkscape:current-layer="Layer_1" /><style
     type="text/css"
     id="style4605">
<![CDATA[
	.st0{fill:#319997;}
	.st1{fill-rule:evenodd;clip-rule:evenodd;fill:#319997;}
]]>
</style><path
     class="st0"
     d="M95.468,416.532c41.078,41.077,97.838,66.489,160.532,66.489s119.448-25.412,160.532-66.489  c41.078-41.078,66.489-97.839,66.489-160.532S457.61,136.546,416.532,95.468C375.448,54.388,318.693,28.976,256,28.976  S136.546,54.388,95.468,95.468C54.385,136.546,28.973,193.307,28.973,256S54.385,375.454,95.468,416.532 M256,0  c141.382,0,256,114.615,256,256c0,141.382-114.618,256-256,256C114.612,512,0,397.382,0,256C0,114.615,114.612,0,256,0z"
     id="path4607"
     style="fill:#39b1cd;fill-opacity:1" /><path
     class="st1"
     d="M112.088,301.73v-91.461c0-6.092,4.987-11.076,11.076-11.076h76.027v-76.028  c0-6.091,4.987-11.076,11.076-11.076h91.465c6.095,0,11.076,4.984,11.076,11.076v76.028h76.027c6.095,0,11.076,4.984,11.076,11.076  v91.461c0,6.096-4.981,11.082-11.076,11.082h-76.027v76.021c0,6.09-4.981,11.076-11.076,11.076h-91.465  c-6.089,0-11.076-4.986-11.076-11.076v-76.021h-76.027C117.075,312.813,112.088,307.826,112.088,301.73"
     id="path4609"
     style="fill:#39b1cd;fill-opacity:1" /><text
     xml:space="preserve"
     style="font-style:normal;font-weight:normal;font-size:64.28263092px;line-height:1.25;font-family:sans-serif;letter-spacing:0px;word-spacing:0px;fill:#000000;fill-opacity:1;stroke:none;stroke-width:1.6070658"
     x="140.75636"
     y="297.75815"
     id="text5163"
     transform="scale(1.0639371,0.93990518)"><tspan
       sodipodi:role="line"
       id="tspan5161"
       x="140.75636"
       y="297.75815"
       style="font-style:normal;font-variant:normal;font-weight:900;font-stretch:normal;font-family:Arial;-inkscape-font-specification:'Arial Heavy';letter-spacing:3.75560427px;fill:#ffffff;fill-opacity:1;stroke-width:1.6070658">WWW</tspan></text>
</svg>